<svg xmlns="http://www.w3.org/2000/svg" width="256" height="256" viewBox="0 0 100 100"><rect width="100" height="100" rx="20" fill="#ffffff"></rect><path d="M22.46 50.45L47.12 61.97Q47.30 62.51 47.30 63.18Q47.30 63.86 47.30 64.40L47.30 64.40Q47.30 67.28 45.91 69.39Q44.51 71.51 41.09 71.51L41.09 71.51Q39.38 71.51 37.76 70.83Q36.14 70.16 33.80 68.90L33.80 68.90L11.48 57.38Q9.41 54.59 9.41 50.27L9.41 50.27Q9.41 46.94 10.36 45.09Q11.30 43.25 13.10 42.26L13.10 42.26L40.64 28.40Q44.42 29.39 45.86 31.23Q47.30 33.08 47.30 35.15L47.30 35.15Q47.30 38.03 45.86 39.56Q44.42 41.09 41.63 42.62L41.63 42.62L22.46 50.45ZM77.54 49.46L53.06 38.21Q52.88 37.67 52.84 36.99Q52.79 36.32 52.79 35.78L52.79 35.78Q52.79 32.90 54.19 30.78Q55.58 28.67 59.09 28.67L59.09 28.67Q60.71 28.67 62.51 29.43Q64.31 30.20 66.38 31.19L66.38 31.19L88.52 42.62Q89.51 43.88 90.05 45.77Q90.59 47.66 90.59 49.73L90.59 49.73Q90.59 53.06 89.60 54.95Q88.61 56.84 86.90 57.74L86.90 57.74L59.90 71.60Q55.94 70.61 54.55 68.76Q53.15 66.92 53.15 64.85L53.15 64.85Q53.15 61.97 54.59 60.39Q56.03 58.82 58.82 57.38L58.82 57.38L77.54 49.46Z" fill="#2a7ae4"></path></svg>